<?xml version="1.0" encoding="UTF-8"?>
<svg viewBox="0 0 50.389 50.307" xmlns="http://www.w3.org/2000/svg" xmlns:xlink="http://www.w3.org/1999/xlink">
 <defs>
  <filter id="g">
   <feGaussianBlur stdDeviation="1.54827"/>
  </filter>
  <linearGradient id="a">
   <stop stop-color="#fff" offset="0"/>
   <stop stop-color="#fff" stop-opacity="0" offset="1"/>
  </linearGradient>
  <linearGradient id="h" x1=".49957" x2=".49957" y1="1.0345" y2="-.017949">
   <stop stop-color="#286a27" offset="0"/>
   <stop stop-color="#264826" offset="1"/>
  </linearGradient>
  <linearGradient id="j" x1=".67218" x2=".56406" y1=".945" y2=".35876" xlink:href="#a"/>
  <linearGradient id="i" x1=".5" x2=".5" y2="1" xlink:href="#a"/>
  <radialGradient id="k" cx="531.04" cy="-27.632" r="37.709" gradientTransform="matrix(.87056 0 0 .87056 68.738 -5.1012)" gradientUnits="userSpaceOnUse">
   <stop stop-color="#8fe68c" offset="0"/>
   <stop stop-color="#29902b" offset="1"/>
  </radialGradient>
 </defs>
 <a xlink:href="http://www.youtube.com/watch?v=UePtoxDhJSw">
  <g transform="matrix(.67755 0 0 .6764 -394.66 131.97)" stroke-linecap="round" stroke-linejoin="round">
   <path d="m655.38-157.92c-1.83e-4 19.65-15.876 35.607-35.525 35.708-19.649 0.10106-35.688-15.692-35.891-35.341-0.20239-19.649 15.508-35.769 35.155-36.072 19.647-0.30359 35.848 15.323 36.253 34.969" fill="url(#k)" stroke="url(#h)" stroke-width="2.954"/>
   <g stroke-width="3.076">
    <path d="m607.08-175.69v38.325l32.937-19.016-32.937-19.309z" filter="url(#g)" opacity=".5" stroke="#000"/>
    <path d="m605.32-177.46v38.325l32.937-19.016-32.937-19.309z" fill="#d6ffdc" stroke="#33543c"/>
   </g>
   <path d="m643.71-172.41c0 10.251-10.764 18.562-24.042 18.562s-24.042-8.3103-24.042-18.562c0-10.251 10.764-18.562 24.042-18.562s24.042 8.3103 24.042 18.562z" fill="url(#i)" stroke-width="4"/>
   <path d="m589.94-143.5c7.1012 15.798 25.442 23.423 41.753 17.048 16.302-6.3715 24.612-24.397 19.136-40.816-4.4241 11.106-13.274 20.411-25.278 25.103-12.016 4.6965-24.822 3.8409-35.611-1.3348z" fill="url(#j)" stroke-width="4"/>
  </g>
 </a>
</svg>
